<svg width="18" height="15" viewBox="0 0 18 15" fill="none" xmlns="http://www.w3.org/2000/svg">
<path d="M17.3334 7.28573C17.3334 7.68124 17.0395 8.00811 16.6581 8.05984L16.5521 8.06698L2.81879 8.06635L7.78024 13.0075C8.08599 13.312 8.08705 13.8066 7.78262 14.1124C7.50585 14.3903 7.07188 14.4165 6.76555 14.1902L6.67776 14.1148L0.375681 7.83976C0.335377 7.79963 0.300371 7.7562 0.27066 7.71033C0.26227 7.69653 0.253727 7.6824 0.245628 7.668C0.23818 7.65565 0.231449 7.64282 0.2251 7.62986C0.21628 7.61099 0.207663 7.5915 0.199839 7.57162C0.193481 7.55628 0.188173 7.54137 0.183332 7.52634C0.177576 7.5077 0.171984 7.48784 0.167173 7.46767C0.163597 7.45359 0.160765 7.44004 0.158295 7.42644C0.154819 7.4062 0.151863 7.38525 0.149754 7.36406C0.14793 7.34789 0.146835 7.33188 0.146229 7.31585C0.146072 7.30613 0.145874 7.29595 0.145874 7.28573L0.146267 7.25546C0.146866 7.24013 0.147913 7.22481 0.149408 7.20953L0.145874 7.28573C0.145874 7.23642 0.150442 7.18819 0.159174 7.14142C0.1612 7.13025 0.163612 7.11879 0.166285 7.10737C0.171835 7.08385 0.178247 7.0612 0.185633 7.039C0.189257 7.02797 0.19348 7.01618 0.197992 7.00448C0.207123 6.98098 0.217045 6.95857 0.227962 6.93674C0.233034 6.92647 0.238714 6.91573 0.244661 6.90509C0.254425 6.88774 0.264482 6.87125 0.275118 6.85518C0.282621 6.8438 0.29093 6.83196 0.299606 6.82031L0.306368 6.8113C0.327415 6.7838 0.35025 6.75774 0.374697 6.7333L0.375635 6.73257L6.67772 0.456532C6.98345 0.152067 7.4781 0.153091 7.78257 0.458819C8.05936 0.736754 8.08367 1.17083 7.85611 1.4762L7.78028 1.56367L2.82087 6.50385L16.5521 6.50448C16.9836 6.50448 17.3334 6.85425 17.3334 7.28573Z" fill="#2F3548"/>
</svg>
