<svg width="24" height="24" viewBox="0 0 24 24" fill="none" xmlns="http://www.w3.org/2000/svg">
<path d="M10.377 3.20215C11.2273 2.47062 12.4588 2.40329 13.3799 3.01367L13.5596 3.14453L13.5615 3.14648L20.2207 8.42676H20.2217C20.6523 8.78452 20.9004 9.31233 20.9004 9.86719V18.5781C20.9003 19.3262 20.6002 20.0445 20.0654 20.5742C19.5972 21.0379 18.9821 21.3238 18.3281 21.3867L18.0449 21.4004H16.083C15.9146 21.4004 15.754 21.3331 15.6367 21.2158C15.5488 21.1279 15.4909 21.0172 15.4678 20.8984L15.4561 20.7773V17.7158C15.4561 17.1804 15.2423 16.6673 14.8623 16.29C14.4825 15.913 13.9679 15.7022 13.4326 15.7021H10.5586C9.44509 15.7021 8.53516 16.5998 8.53516 17.7158V20.3389L8.51074 20.3477L8.50781 20.7783C8.50507 21.1184 8.22528 21.4004 7.87207 21.4004H5.95605C4.37469 21.4003 3.09983 20.1285 3.09961 18.5693V9.88086C3.11124 9.38737 3.31891 8.92081 3.67285 8.5791L3.83301 8.44043L3.8418 8.43262L10.3604 3.21582L10.3682 3.20898L10.377 3.20215Z" stroke="#967259" stroke-width="1.2"/>
</svg>
