<svg width="13" height="11" viewBox="0 0 13 11" fill="none" xmlns="http://www.w3.org/2000/svg">
<path d="M0 5.79426C0 5.50949 0.211615 5.27415 0.486172 5.2369L0.5625 5.23176L10.4505 5.23221L6.87826 1.67457C6.65812 1.45537 6.65735 1.09922 6.87655 0.879072C7.07582 0.678943 7.38827 0.660115 7.60883 0.823031L7.67204 0.877359L12.2095 5.39536C12.2386 5.42425 12.2638 5.45552 12.2852 5.48855C12.2912 5.49849 12.2973 5.50866 12.3032 5.51903C12.3085 5.52792 12.3134 5.53715 12.318 5.54649C12.3243 5.56007 12.3305 5.5741 12.3361 5.58842C12.3407 5.59946 12.3445 5.6102 12.348 5.62102C12.3522 5.63444 12.3562 5.64874 12.3597 5.66326C12.3622 5.6734 12.3643 5.68315 12.3661 5.69295C12.3686 5.70752 12.3707 5.7226 12.3722 5.73786C12.3735 5.7495 12.3743 5.76103 12.3747 5.77258C12.3749 5.77958 12.375 5.7869 12.375 5.79426L12.3747 5.81605C12.3743 5.82709 12.3735 5.83812 12.3725 5.84913L12.375 5.79426C12.375 5.82976 12.3717 5.86449 12.3654 5.89816C12.364 5.9062 12.3622 5.91446 12.3603 5.92268C12.3563 5.93961 12.3517 5.95592 12.3464 5.97191C12.3438 5.97985 12.3407 5.98833 12.3375 5.99676C12.3309 6.01368 12.3238 6.02982 12.3159 6.04553C12.3122 6.05292 12.3082 6.06066 12.3039 6.06832C12.2968 6.08081 12.2896 6.09269 12.2819 6.10426C12.2765 6.11245 12.2706 6.12097 12.2643 6.12936L12.2594 6.13585C12.2443 6.15565 12.2278 6.17441 12.2102 6.19201L12.2096 6.19253L7.67207 10.7113C7.45195 10.9305 7.09579 10.9298 6.87658 10.7096C6.67729 10.5095 6.65979 10.197 6.82363 9.97712L6.87823 9.91414L10.449 6.35721L0.5625 6.35676C0.25184 6.35676 0 6.10492 0 5.79426Z" fill="white"/>
</svg>
