<svg width="17" height="25" viewBox="0 0 17 25" fill="none" xmlns="http://www.w3.org/2000/svg">
<path d="M9.37901 0.753819C9.22115 0.410576 8.87799 0.190572 8.50021 0.190491C8.12235 0.190409 7.77895 0.410169 7.62109 0.753411C5.18769 6.04581 0.87207 12.8577 0.87207 16.5626C0.87207 20.7754 4.28714 24.1905 8.49997 24.1905C12.7128 24.1905 16.1279 20.7753 16.1279 16.5626C16.128 12.858 11.8125 6.04622 9.37901 0.753819ZM8.17416 21.7605C5.35581 21.7605 3.06299 19.4677 3.06299 16.6493C3.06299 16.0871 3.51888 15.6312 4.08115 15.6312C4.64342 15.6312 5.09931 16.0871 5.09931 16.6493C5.09931 18.3448 6.47872 19.7242 8.17416 19.7242C8.73643 19.7242 9.19232 20.1801 9.19232 20.7423C9.19232 21.3047 8.73643 21.7605 8.17416 21.7605Z" fill="#DDDDDD"/>
</svg>
